<?xml version="1.0" encoding="utf-8"?>
<!-- Generator: Adobe Illustrator 24.0.1, SVG Export Plug-In . SVG Version: 6.00 Build 0)  -->
<svg version="1.1" id="Layer_1" xmlns="http://www.w3.org/2000/svg" xmlns:xlink="http://www.w3.org/1999/xlink" x="0px" y="0px"
	 viewBox="0 0 204.4 193.8" style="enable-background:new 0 0 204.4 193.8;" xml:space="preserve">
<style type="text/css">
	.st0{fill:#15A7CE;}
</style>
<g>
	<path class="st0" d="M117.8,174.2c0.6,0.6,1.4,0.9,2.2,0.9s1.5-0.3,2.1-0.8l13.6-13.1c0.6-0.6,0.9-1.4,0.9-2.2s-0.4-1.6-1-2.2
		L122,144.6c-1.2-1.1-3.1-1-4.2,0.2c-1.1,1.2-1,3.1,0.2,4.2l11.2,10.1L117.8,170C116.7,171.1,116.6,173,117.8,174.2z"/>
	<path class="st0" d="M4.5,62.6c0.6,0.6,1.4,0.9,2.2,0.9s1.5-0.3,2.1-0.8l30.8-29.8c0.6-0.6,0.9-1.4,0.9-2.2s-0.4-1.6-1-2.2L8.7,0.8
		C7.5-0.3,5.6-0.2,4.5,1c-1.1,1.2-1,3.1,0.2,4.2l28.4,25.6L4.6,58.3C3.4,59.5,3.4,61.4,4.5,62.6z"/>
	<path class="st0" d="M83.2,173.8c0.6,0.6,1.3,0.8,2.1,0.8c0.8,0,1.6-0.3,2.2-0.9c1.2-1.2,1.1-3.1-0.1-4.2l-11.3-10.9l11.2-10.1
		c1.2-1.1,1.3-3,0.2-4.2c-1.1-1.2-3-1.3-4.2-0.2l-13.6,12.2c-0.6,0.6-1,1.3-1,2.2s0.3,1.6,0.9,2.2L83.2,173.8z"/>
	<path class="st0" d="M97.7,176.2c0.3,0.1,0.6,0.1,0.9,0.1c1.3,0,2.4-0.8,2.9-2.1l9.5-29.1c0.5-1.6-0.3-3.3-1.9-3.8
		c-1.6-0.5-3.3,0.3-3.8,1.9l-9.5,29.2C95.3,173.9,96.1,175.6,97.7,176.2z"/>
	<path class="st0" d="M51.9,6.1h147.6c1.7,0,3-1.3,3-3s-1.3-3-3-3H51.9c-1.7,0-3,1.3-3,3S50.2,6.1,51.9,6.1z"/>
	<path class="st0" d="M153.9,25.9c0-1.7-1.3-3-3-3H52.5c-1.7,0-3,1.3-3,3s1.3,3,3,3h98.4C152.6,28.9,153.9,27.5,153.9,25.9z"/>
	<path class="st0" d="M187.1,28.9c1.7,0,3-1.3,3-3s-1.3-3-3-3h-16.9c-1.7,0-3,1.3-3,3s1.3,3,3,3H187.1z"/>
	<path class="st0" d="M52,47.4c-1.7,0-3,1.3-3,3s1.3,3,3,3h78c1.7,0,3-1.3,3-3s-1.3-3-3-3H52z"/>
	<path class="st0" d="M143.6,50.4c0,1.7,1.3,3,3,3h16.9c1.7,0,3-1.3,3-3s-1.3-3-3-3h-16.9C144.9,47.4,143.6,48.7,143.6,50.4z"/>
	<path class="st0" d="M4.8,83h48.5c1.7,0,3-1.3,3-3s-1.3-3-3-3H4.8c-1.7,0-3,1.3-3,3S3.1,83,4.8,83z"/>
	<path class="st0" d="M4.3,107.6h35.2c1.7,0,3-1.3,3-3s-1.3-3-3-3H4.3c-1.7,0-3,1.3-3,3S2.6,107.6,4.3,107.6z"/>
	<path class="st0" d="M200.2,75.5h-62.8c-1.7,0-3,1.3-3,3s1.3,3,3,3h62.8c1.7,0,3-1.3,3-3S201.9,75.5,200.2,75.5z"/>
	<path class="st0" d="M151,100.1c-1.7,0-3,1.3-3,3s1.3,3,3,3h13.6c1.7,0,3-1.3,3-3s-1.3-3-3-3H151z"/>
	<path class="st0" d="M199.7,99.7h-22.9c-1.7,0-3,1.3-3,3s1.3,3,3,3h22.9c1.7,0,3-1.3,3-3S201.4,99.7,199.7,99.7z"/>
	<path class="st0" d="M201.6,187.8h-45.5c0.6-1.2,1-2.6,1-4.1V137c0-5-4-9-9-9h-7.9v-8.4c0-7.1-8.9-10.3-15.2-10.3h-4.8
		c-5-1.8-6.4-5.8-6.6-8.8c5.9-3.9,9.5-10.4,9.5-17.5c0-11.6-9.4-21-21-21c-11.6,0-21,9.4-21,21c0,7.5,3.9,14.3,10.2,18
		c-1.3,3.1-2.9,5.5-4.7,6.8h-9.7c-6.6,0-12,5.3-12,11.8v8.4h-10c-5,0-9,4-9,9v46.7c0,1.5,0.4,2.9,1,4.1H3c-1.7,0-3,1.3-3,3
		s1.3,3,3,3h198.4c1.7,0,3-1.3,3-3S203.2,187.8,201.6,187.8z M87.1,83c0-8.3,6.7-15,15-15s15,6.7,15,15c0,5.5-3,10.6-7.9,13.2
		c-3.1,1.7-6.9,2.1-10.4,1.3c-0.8-0.2-1.7-0.4-2.5-0.8C90.7,94.5,87.1,89.1,87.1,83z M71.1,119.7c0-3.2,2.7-5.8,6-5.8h10.6
		c0.6,0,1.1-0.2,1.6-0.5c3-1.9,5.7-5.4,7.6-10c0.3,0.1,0.5,0.1,0.8,0.2c0.1,0,0.3,0.1,0.4,0.1c0.6,0.1,1.2,0.2,1.7,0.3
		c0.2,0,0.4,0,0.5,0c0.4,0,0.9,0.1,1.3,0.1c0.1,0,0.3,0,0.4,0c0.1,0,0.2,0,0.3,0c0.1,0,0.2,0,0.2,0c0.4,0,0.7,0,1.1-0.1
		c0.1,0,0.2,0,0.3,0c0.3,0,0.7-0.1,1-0.1c0.1,0,0.3,0,0.4-0.1c0.3,0,0.6-0.1,0.9-0.2c0.2,0,0.4-0.1,0.5-0.1c0.3-0.1,0.5-0.1,0.8-0.2
		c0.1,0,0.2-0.1,0.3-0.1c0.9,4.2,3.4,9.7,10.9,12.1c0.3,0.1,0.6,0.1,0.9,0.1h5.3c4.1,0,9.2,2,9.2,4.3v7.9l-63.2,0.2v-8.1H71.1z
		 M52.1,137c0-1.6,1.3-3,3-3h93.1c1.6,0,3,1.3,3,3v46.7c0,1.6-1.3,3-3,3H55c-1.6,0-3-1.3-3-3L52.1,137L52.1,137z"/>
</g>
</svg>
